<svg id="Capa_1" enable-background="new 0 0 512.006 512.006" height="512" viewBox="0 0 512.006 512.006" width="512" xmlns="http://www.w3.org/2000/svg"><g id="XMLID_962_"><g id="XMLID_173_"><path id="XMLID_174_" d="m458.514 38.483c1.304 0 2.63-.257 3.905-.799l43.492-18.477c5.083-2.16 7.453-8.031 5.294-13.114-2.16-5.084-8.032-7.453-13.114-5.294l-43.492 18.477c-5.083 2.16-7.453 8.031-5.294 13.114 1.618 3.808 5.318 6.093 9.209 6.093z"/><path id="XMLID_606_" d="m505.912 158.652-30.585-12.994c-5.086-2.161-10.954.211-13.114 5.294-2.159 5.083.211 10.954 5.294 13.114l30.585 12.994c1.276.542 2.602.799 3.905.799 3.892 0 7.591-2.285 9.209-6.093 2.159-5.083-.211-10.954-5.294-13.114z"/><path id="XMLID_612_" d="m433.794 128.013-60.665-25.773v-26.62l34.686-14.736c5.083-2.16 7.453-8.031 5.294-13.114-2.16-5.083-8.032-7.454-13.114-5.294l-26.865 11.414v-36.96c0-5.523-4.478-10-10-10h-68.314c-5.523 0-10 4.477-10 10v21.023h-54.822c-5.522 0-10 4.478-10 10s4.478 10 10 10h54.822v61.953h-199.646v-61.953h54.822c5.523 0 10-4.478 10-10s-4.477-10-10-10h-54.822v-21.023c0-5.523-4.478-10-10-10h-56c-5.523 0-10 4.477-10 10v126.472c-5.132.424-9.168 4.716-9.168 9.958 0 5.523 4.478 10 10 10h71.594v-.002c1.914.002 3.849-.543 5.56-1.686l10.589-7.082c14.361-9.606 31.086-14.684 48.365-14.684 16.086 0 32.056 2.334 47.468 6.938 17.271 5.157 35.168 7.772 53.191 7.772h26.667c6.638 0 12.037 5.399 12.037 12.036s-5.399 12.036-12.037 12.036h-32.507c-5.523 0-10 4.478-10 10s4.477 10 10 10h41.322c6.638.001 12.037 5.4 12.037 12.036 0 6.637-5.399 12.036-12.036 12.036l-41.323.001c-5.523 0-10 4.477-10 10 0 5.522 4.477 10 10 10h39.946c6.637 0 12.036 5.399 12.036 12.036s-5.399 12.036-12.036 12.036h-39.946c-5.523 0-10 4.478-10 10s4.477 10 10 10h26.142c6.637 0 12.036 5.399 12.036 12.036s-5.399 12.036-12.036 12.036h-71.392c-40.351 0-78.264-15.735-106.755-44.308-1.876-1.882-4.424-2.939-7.081-2.939h-71.841c-5.522 0-10 4.477-10 10 0 5.522 4.478 10 10 10h67.762c11.373 10.871 23.997 19.985 37.533 27.227v58.378c0 5.522 4.478 10 10 10h22.368c-1.649 32.096-11.229 61.602-27.393 83.938-10.331 14.277-22.708 24.464-35.793 29.458-5.159 1.97-7.746 7.749-5.776 12.909 1.522 3.986 5.317 6.436 9.345 6.436 1.185 0 2.391-.213 3.564-.66 16.73-6.387 32.244-18.98 44.863-36.419 18.583-25.681 29.515-59.34 31.213-95.663h28.025c-1.751 42.225-14.575 81.704-36.557 112.081-.993 1.373-2.075 2.809-3.404 4.518-3.392 4.359-2.607 10.643 1.752 14.033 4.358 3.391 10.643 2.608 14.033-1.752 1.477-1.898 2.692-3.513 3.824-5.077 24.409-33.731 38.579-77.372 40.362-123.803h22.278c5.523 0 10-4.478 10-10v-38.357h19.069c17.665 0 32.036-14.371 32.036-32.036 0-5.577-1.434-10.827-3.95-15.399 10.517-5.26 17.754-16.137 17.754-28.673 0-8.176-3.078-15.646-8.137-21.312 5.871-5.811 9.514-13.869 9.514-22.762 0-11.011-5.584-20.741-14.069-26.511 2.576-3.916 4.304-8.432 4.955-13.284h57.955c5.522 0 10-4.478 10-10v-36.96l52.845 22.451c1.276.542 2.602.799 3.905.799 3.892 0 7.592-2.286 9.209-6.093 2.16-5.081-.21-10.952-5.293-13.112zm-205.792 231.25h-92.705v-39.295c19.038 7.183 39.419 10.938 60.382 10.938h32.323zm-162.832-332.333v116.43h-36v-116.43zm239.644 124v-124h48.314v124z"/><path id="XMLID_615_" d="m429.883 98.93h41.533c5.523 0 10-4.478 10-10 0-5.523-4.477-10-10-10h-41.533c-5.522 0-10 4.477-10 10 0 5.522 4.478 10 10 10z"/><path id="XMLID_616_" d="m184.992 57.953c2.63 0 5.21-1.07 7.069-2.931 1.86-1.859 2.931-4.439 2.931-7.069 0-2.631-1.07-5.21-2.931-7.07-1.859-1.86-4.439-2.93-7.069-2.93-2.631 0-5.21 1.069-7.07 2.93-1.86 1.86-2.93 4.439-2.93 7.07 0 2.63 1.069 5.21 2.93 7.069 1.86 1.861 4.439 2.931 7.07 2.931z"/></g></g></svg>