<svg id="Capa_1" enable-background="new 0 0 512 512" height="512" viewBox="0 0 512 512" width="512" xmlns="http://www.w3.org/2000/svg"><g><g><path d="m432.257 0h-352.514c-43.97 0-79.743 35.772-79.743 79.743v352.514c0 43.971 35.773 79.743 79.743 79.743h352.513c43.971 0 79.744-35.772 79.744-79.743v-352.514c0-43.971-35.773-79.743-79.743-79.743zm64.743 432.257c0 35.7-29.044 64.743-64.743 64.743h-352.514c-35.699 0-64.743-29.043-64.743-64.743v-352.514c0-35.7 29.044-64.743 64.743-64.743h352.513c35.7 0 64.744 29.043 64.744 64.743z"/><path d="m432.257 35.61h-352.514c-24.335 0-44.134 19.798-44.134 44.134v22.726c0 4.142 3.358 7.5 7.5 7.5s7.5-3.358 7.5-7.5v-22.726c0-16.064 13.069-29.134 29.134-29.134h352.513c16.064 0 29.134 13.069 29.134 29.134v352.513c0 16.065-13.069 29.134-29.134 29.134h-352.513c-16.064 0-29.134-13.069-29.134-29.134v-294.725c0-4.142-3.358-7.5-7.5-7.5s-7.5 3.358-7.5 7.5v294.725c0 24.336 19.798 44.134 44.134 44.134h352.513c24.336 0 44.134-19.798 44.134-44.134v-352.513c0-24.336-19.797-44.134-44.133-44.134z"/><path d="m376.624 246.164c-20.964-14.794-56.236-20.433-84.484-13.988-2.912-4.461-6.625-8.349-10.938-11.461 5.623-11.606 15.417-20.157 32.36-28.556 8.913-4.42 20.007-9.921 20.007-24.505 0-39.831-40.091-64.486-77.235-64.486-42.587 0-77.234 28.928-77.234 64.486 0 17.66 8.652 41.206 22.042 59.985 4.301 6.03 8.871 11.338 13.625 15.859-.931 3.161-1.518 6.468-1.695 9.883-11.859-.864-23.037-6.207-36.868-17.377l-.186-.15c-7.655-6.186-17.183-13.887-30.437-7.79-36.188 16.64-41.839 63.365-26.321 97.112 16.404 35.677 56.122 59.202 90.854 43.229 24.49-11.261 48.627-42.237 55.895-70.882 2.168-.515 4.272-1.19 6.3-2.02 7.088 10.576 10.375 23.176 6.764 46.393-1.528 9.831-3.43 22.066 8.487 30.477 31.633 22.323 75.006 5.553 97.219-25.924 11.117-15.753 17.029-35.167 16.221-53.262-.886-19.856-9.543-36.556-24.376-47.023zm-163.269-27.235c-11.517-16.152-19.254-36.758-19.254-51.276 0-27.287 27.918-49.486 62.234-49.486 38.441 0 62.235 25.687 62.235 49.486 0 4.658-2.347 6.443-11.67 11.066-20.008 9.919-32.139 20.797-39.215 35.47-3.698-1.038-7.591-1.605-11.617-1.605-13.888 0-26.255 6.616-34.133 16.856-2.944-3.128-5.815-6.634-8.58-10.511zm-9.507 135.847c-26.948 12.395-58.09-7.879-70.959-35.868-16.06-34.926-2.663-67.275 18.96-77.218 4.235-1.946 6.798-.59 14.742 5.829l.188.151c17.334 14 32.112 20.445 48.196 20.826 4.915 15.673 18.57 27.507 35.227 29.787-7.912 24.707-29.4 48.697-46.354 56.493zm52.22-71.082c-15.47 0-28.055-12.585-28.055-28.055s12.585-28.055 28.055-28.055c15.469 0 28.055 12.585 28.055 28.055 0 15.622-12.771 28.055-28.055 28.055zm116.457 54.105c-17.674 25.045-51.952 39.511-76.314 22.317-3.807-2.686-3.912-5.632-2.313-15.917 3.767-24.228 1.193-41.252-8.916-56.685 11.446-10.392 16.495-26.028 13.102-41.247 23.484-4.473 53.3.445 69.892 12.153 10.958 7.733 17.365 20.318 18.041 35.435.662 14.838-4.255 30.855-13.492 43.944z"/><path d="m387.667 423.5c0 16.266 13.233 29.5 29.5 29.5s29.5-13.234 29.5-29.5-13.233-29.5-29.5-29.5-29.5 13.234-29.5 29.5zm44 0c0 7.995-6.505 14.5-14.5 14.5s-14.5-6.505-14.5-14.5 6.505-14.5 14.5-14.5 14.5 6.505 14.5 14.5z"/><path d="m389.358 141.267c-3.227 2.598-3.736 7.319-1.139 10.545 24.472 30.399 37.407 67.139 37.407 106.248 0 93.495-76.063 169.559-169.559 169.559-39.108 0-75.848-12.936-106.247-37.408-3.225-2.597-7.947-2.087-10.545 1.139-2.597 3.227-2.087 7.948 1.139 10.545 32.621 26.261 73.694 40.724 115.653 40.724 101.766 0 184.559-82.793 184.559-184.559 0-41.96-14.463-83.033-40.724-115.654-2.596-3.227-7.317-3.736-10.544-1.139z"/><path d="m374.299 116.336c-33.079-27.623-75.068-42.836-118.231-42.836-101.766 0-184.559 82.793-184.559 184.56 0 43.164 15.213 85.152 42.836 118.23 1.483 1.776 3.614 2.692 5.761 2.692 1.695 0 3.4-.572 4.804-1.743 3.179-2.655 3.604-7.385.949-10.564-25.375-30.386-39.35-68.959-39.35-108.615 0-93.496 76.064-169.56 169.559-169.56 39.656 0 78.23 13.975 108.616 39.35 3.18 2.656 7.909 2.229 10.564-.949 2.655-3.18 2.229-7.909-.949-10.565z"/></g></g></svg>